<svg width="89" height="91" viewBox="0 0 89 91" fill="none" xmlns="http://www.w3.org/2000/svg">
<mask id="path-1-outside-1_314_128" maskUnits="userSpaceOnUse" x="-0.985352" y="0" width="89" height="91" fill="black">
<rect fill="white" x="-0.985352" width="89" height="91"/>
<path d="M44.0078 2C20.8077 2 2 20.8077 2 44.0078C2.00006 59.4158 10.2975 72.883 22.666 80.1934C21.9071 82.8377 19.858 85.6164 15.5742 88.3086C21.5462 88.6655 27.0314 86.9134 31.6543 84.167C35.5602 85.367 39.7084 86.0156 44.0078 86.0156C67.2077 86.0154 86.0146 67.2077 86.0146 44.0078C86.0146 20.8078 67.2078 2.00017 44.0078 2Z"/>
</mask>
<path d="M44.0078 2C20.8077 2 2 20.8077 2 44.0078C2.00006 59.4158 10.2975 72.883 22.666 80.1934C21.9071 82.8377 19.858 85.6164 15.5742 88.3086C21.5462 88.6655 27.0314 86.9134 31.6543 84.167C35.5602 85.367 39.7084 86.0156 44.0078 86.0156C67.2077 86.0154 86.0146 67.2077 86.0146 44.0078C86.0146 20.8078 67.2078 2.00017 44.0078 2Z" fill="#FFCC00"/>
<path d="M44.0078 2V0H44.0078L44.0078 2ZM2 44.0078L0 44.0078V44.0078H2ZM22.666 80.1934L23.6837 78.4716L25.0151 79.2585L24.5884 80.7451L22.666 80.1934ZM15.5742 88.3086L15.4549 90.305L9.23056 89.9331L14.51 86.6152L15.5742 88.3086ZM31.6543 84.167L30.6328 82.4475L31.3946 81.9949L32.2417 82.2552L31.6543 84.167ZM44.0078 86.0156L44.0078 88.0156H44.0078V86.0156ZM86.0146 44.0078H88.0146V44.0078L86.0146 44.0078ZM44.0078 2V4C21.9123 4 4 21.9123 4 44.0078H2H0C0 19.7031 19.7031 0 44.0078 0V2ZM2 44.0078L4 44.0078C4.00006 58.6794 11.8985 71.506 23.6837 78.4716L22.666 80.1934L21.6484 81.9151C8.69658 74.26 6.86646e-05 60.1522 0 44.0078L2 44.0078ZM22.666 80.1934L24.5884 80.7451C23.6545 83.9991 21.2007 87.1348 16.6384 90.002L15.5742 88.3086L14.51 86.6152C18.5154 84.0981 20.1597 81.6762 20.7436 79.6416L22.666 80.1934ZM15.5742 88.3086L15.6935 86.3122C21.1902 86.6406 26.2822 85.0322 30.6328 82.4475L31.6543 84.167L32.6758 85.8864C27.7807 88.7946 21.9022 90.6903 15.4549 90.305L15.5742 88.3086ZM31.6543 84.167L32.2417 82.2552C35.9603 83.3977 39.9106 84.0156 44.0078 84.0156V86.0156V88.0156C39.5062 88.0156 35.1602 87.3364 31.0669 86.0788L31.6543 84.167ZM44.0078 86.0156L44.0078 84.0156C66.1031 84.0155 84.0146 66.1032 84.0146 44.0078L86.0146 44.0078L88.0146 44.0078C88.0145 68.3122 68.3123 88.0154 44.0078 88.0156L44.0078 86.0156ZM86.0146 44.0078H84.0146C84.0146 21.9123 66.1032 4.00017 44.0078 4L44.0078 2L44.0078 0C68.3124 0.000183225 88.0146 19.7033 88.0146 44.0078H86.0146Z" fill="#202848" mask="url(#path-1-outside-1_314_128)"/>
</svg>
