<svg width="117" height="35" viewBox="0 0 117 35" fill="none" xmlns="http://www.w3.org/2000/svg">
<g clip-path="url(#clip0_359_6)">
<path d="M66.5914 15.1323L49.8402 15.08C48.2791 15.0751 47.0108 16.3034 47.0073 17.8235L46.9788 30.1307C46.9753 31.6507 48.238 32.8869 49.799 32.8918L66.5503 32.9441C68.1113 32.949 69.3797 31.7207 69.3832 30.2006L69.4116 17.8934C69.4151 16.3733 68.1525 15.1371 66.5914 15.1323Z" fill="#FFE0C2"/>
<path d="M116.039 30.8649L69.3841 30.7229L69.4155 16.5259L102.127 2.70419C108.726 -0.0833166 116.099 4.6402 116.083 11.6463L116.039 30.8649Z" fill="#FFE0C2"/>
<path d="M0.326906 30.667L46.9816 30.809L47.0131 16.6119L14.3659 2.5943C7.77988 -0.233715 0.383741 4.44581 0.367852 11.4519L0.323191 30.6705L0.326906 30.667Z" fill="#FFE0C2"/>
</g>
<defs>
<clipPath id="clip0_359_6">
<rect width="116" height="32" fill="white" transform="translate(0.572963) rotate(1.02594)"/>
</clipPath>
</defs>
</svg>
