<svg width="41" height="43" viewBox="0 0 41 43" fill="none" xmlns="http://www.w3.org/2000/svg">
<mask id="path-1-inside-1_102_237" fill="white">
<path d="M20.2451 0C31.4262 5.7628e-05 40.4901 9.06405 40.4902 20.2451C40.4902 27.4166 36.7613 33.7168 31.1367 37.3135C32.0465 38.6413 33.3669 39.864 35.249 40.7949C31.5329 43.8484 26.451 42.82 22.0195 40.4121C21.4348 40.4629 20.8431 40.4912 20.2451 40.4912C9.06387 40.4912 0 31.4264 0 20.2451C0.000174208 9.06402 9.06398 0 20.2451 0Z"/>
</mask>
<path d="M20.2451 0L20.2451 -1H20.2451V0ZM40.4902 20.2451H41.4902V20.2451L40.4902 20.2451ZM31.1367 37.3135L30.598 36.471L29.7283 37.0271L30.3118 37.8787L31.1367 37.3135ZM35.249 40.7949L35.8839 41.5675L37.0798 40.5848L35.6924 39.8986L35.249 40.7949ZM22.0195 40.4121L22.497 39.5334L22.2327 39.3898L21.933 39.4159L22.0195 40.4121ZM20.2451 40.4912V41.4912H20.2451L20.2451 40.4912ZM0 20.2451L-1 20.2451V20.2451H0ZM20.2451 0L20.2451 1C30.8739 1.00005 39.4901 9.61633 39.4902 20.2451L40.4902 20.2451L41.4902 20.2451C41.4901 8.51178 31.9785 -0.99994 20.2451 -1L20.2451 0ZM40.4902 20.2451H39.4902C39.4902 27.0613 35.9473 33.0503 30.598 36.471L31.1367 37.3135L31.6755 38.156C37.5752 34.3833 41.4902 27.7719 41.4902 20.2451H40.4902ZM31.1367 37.3135L30.3118 37.8787C31.3191 39.3489 32.7715 40.6851 34.8057 41.6913L35.249 40.7949L35.6924 39.8986C33.9624 39.0429 32.7739 37.9336 31.9617 36.7482L31.1367 37.3135ZM35.249 40.7949L34.6142 40.0223C31.398 42.665 26.8433 41.8951 22.497 39.5334L22.0195 40.4121L21.5421 41.2908C26.0587 43.745 31.6678 45.0319 35.8839 41.5675L35.249 40.7949ZM22.0195 40.4121L21.933 39.4159C21.3742 39.4644 20.8115 39.4912 20.2451 39.4912L20.2451 40.4912L20.2451 41.4912C20.8746 41.4912 21.4953 41.4614 22.1061 41.4084L22.0195 40.4121ZM20.2451 40.4912V39.4912C9.61622 39.4912 1 30.8741 1 20.2451H0H-1C-1 31.9786 8.51152 41.4912 20.2451 41.4912V40.4912ZM0 20.2451L1 20.2451C1.00017 9.61629 9.61628 1 20.2451 1V0V-1C8.51168 -1 -0.999817 8.51175 -1 20.2451L0 20.2451Z" fill="white" mask="url(#path-1-inside-1_102_237)"/>
</svg>
