<svg width="41" height="43" viewBox="0 0 41 43" fill="none" xmlns="http://www.w3.org/2000/svg">
<mask id="path-1-inside-1_102_242" fill="white">
<path d="M20.3945 0C9.13094 7.51515e-05 0.000156403 9.13096 0 20.3945C0 27.6188 3.75694 33.9646 9.42285 37.5879C8.50631 38.9258 7.17573 40.1578 5.2793 41.0957C9.02307 44.1723 14.1439 43.137 18.6084 40.7109C19.197 40.762 19.7927 40.79 20.3945 40.79C31.6583 40.79 40.7891 31.6583 40.7891 20.3945C40.7889 9.13092 31.6582 0 20.3945 0Z"/>
</mask>
<path d="M20.3945 0L20.3945 -1H20.3945V0ZM0 20.3945H-1V20.3945L0 20.3945ZM9.42285 37.5879L9.9616 36.7454L10.8312 37.3015L10.2478 38.153L9.42285 37.5879ZM5.2793 41.0957L4.64439 41.8683L3.44854 40.8855L4.83597 40.1993L5.2793 41.0957ZM18.6084 40.7109L18.1309 39.8323L18.3952 39.6887L18.6948 39.7147L18.6084 40.7109ZM20.3945 40.79V41.79H20.3945L20.3945 40.79ZM40.7891 20.3945L41.7891 20.3945V20.3945H40.7891ZM20.3945 0L20.3945 1C9.68324 1.00007 1.00015 9.68324 1 20.3945L0 20.3945L-1 20.3945C-0.999836 8.57868 8.57865 -0.999921 20.3945 -1L20.3945 0ZM0 20.3945H1C1 27.2634 4.5708 33.2981 9.9616 36.7454L9.42285 37.5879L8.88411 38.4304C2.94308 34.6312 -1 27.9742 -1 20.3945H0ZM9.42285 37.5879L10.2478 38.153C9.23366 39.6335 7.77114 40.9789 5.72262 41.9921L5.2793 41.0957L4.83597 40.1993C6.58031 39.3366 7.77896 38.2181 8.59787 37.0227L9.42285 37.5879ZM5.2793 41.0957L5.91421 40.3231C9.15811 42.989 13.7518 42.212 18.1309 39.8323L18.6084 40.7109L19.0859 41.5896C14.5361 44.062 8.88804 45.3557 4.64439 41.8683L5.2793 41.0957ZM18.6084 40.7109L18.6948 39.7147C19.257 39.7635 19.8237 39.79 20.3945 39.79L20.3945 40.79L20.3945 41.79C19.7616 41.79 19.1371 41.7606 18.5219 41.7072L18.6084 40.7109ZM20.3945 40.79V39.79C31.1059 39.79 39.7891 31.1061 39.7891 20.3945H40.7891H41.7891C41.7891 32.2105 32.2106 41.79 20.3945 41.79V40.79ZM40.7891 20.3945L39.7891 20.3945C39.7889 9.68319 31.1059 1 20.3945 1V0V-1C32.2105 -1 41.7889 8.57864 41.7891 20.3945L40.7891 20.3945Z" fill="white" mask="url(#path-1-inside-1_102_242)"/>
</svg>
